<svg id="vector" xmlns="http://www.w3.org/2000/svg" width="51" height="51" viewBox="0 0 51 51"><path fill="none" d="M 35.7 35.7 L 50 50" stroke-width="4" stroke="#9e9e9e" stroke-linecap="round" stroke-linejoin="round" stroke-miterlimit="10" id="path_0"/><path fill="#FB6F92" d="M35,36.5L20.5,51C16.9,42,21,32.9,21,32.9L7.5,17c0,0-4.4,0.7-7.5-1.8L15.3,0c0,0,2.5,3.1,1.8,7.6L32.8,21 c0,0,8.5-4.4,18.1-0.5L35,36.5z" id="path_1"/><path fill="#FB6F92" d="M21,32.9c0,0,0,0.1-0.1,0.2L33,20.9C32.9,21,32.8,21,32.8,21L17.1,7.7l-9.5,9.5L21,32.9z" id="path_2"/></svg>